<svg width="160" height="47" viewBox="0 0 160 47" fill="none" xmlns="http://www.w3.org/2000/svg">
<path d="M50.0663 18.9944V24.1928C54.3689 24.1875 62.7202 24.1753 65.7449 24.1753C68.9124 24.1753 69.4887 22.7814 69.4887 21.5726C69.4887 20.3936 68.9194 18.9927 65.7449 18.9927L50.0663 18.9944ZM50.0663 29.4872V33.1187H44.3677V13.8258C44.3677 13.8258 62.7572 13.8363 65.7449 13.8363C71.336 13.859 74.7766 17.0887 74.7766 21.639C74.7766 26.2068 71.343 29.4819 65.7449 29.4819C62.7202 29.4819 54.3653 29.4802 50.0663 29.4872Z" fill="#1D2646"/>
<path d="M93.6034 27.9903L88.6698 21.6007L83.7556 27.9903H93.6034ZM99.8096 36.0027L97.5834 33.1258H79.8037L77.5934 35.9974L73.1656 33.1101L88.6592 12.9718L104.248 33.1345" fill="#1D2646"/>
<path d="M141.371 21.0735H157.515V25.8561H141.371V28.0937H160V33.1313H135.674V13.7966L159.97 13.7948V18.8342H141.371" fill="#1D2646"/>
<path d="M124.397 18.5752C122.957 18.1263 121.337 17.8643 119.595 17.8643C112.851 17.8643 109.746 21.3665 109.746 23.6792C109.746 26.0164 112.857 29.5151 119.595 29.5151C122.382 29.5151 124.818 28.8461 126.605 27.8417V21.2093L131.893 21.2058V30.544C128.066 33.4331 124.478 34.7554 119.595 34.7554C112.113 34.7554 104.081 30.675 104.081 23.6792C104.081 16.701 112.118 12.6241 119.595 12.6241C121.867 12.6241 124.023 12.9647 125.985 13.5778" fill="#1D2646"/>
<path d="M4.23101 21.605H0.0316162V25.7781H4.23101V21.605Z" fill="#E84626"/>
<path d="M31.1837 21.8837L9.75405 0.588035C8.96507 -0.196012 7.69253 -0.196012 6.8781 0.588035L0.693537 6.73395C-0.0954405 7.51799 -0.0954405 8.78258 0.693537 9.59192L13.648 22.4655C14.0807 22.8954 14.0807 23.6289 13.648 24.0588L0.591733 37.0335C-0.197244 37.8176 -0.197244 39.0822 0.591733 39.8915L6.7763 46.0374C7.56528 46.8215 8.83782 46.8215 9.65225 46.0374L24.6428 31.1406C24.7701 31.0647 24.8973 30.9635 24.9991 30.8623L31.1837 24.7164C31.9727 23.9324 31.9727 22.6678 31.1837 21.8837Z" fill="#22B8CF"/>
</svg>
