<svg xmlns="http://www.w3.org/2000/svg" width="30" height="30" fill="none">
  <path fill="#E3412A" d="m12.67 17.34 1.18-.68-1.53-1.28.35 1.96Z"/>
  <path fill="#E3412A" d="M27.2 15.49a.87.87 0 0 0-.37-.7v-.01l-3.04-1.76 1.76-3.04h-.01a.87.87 0 0 0-.7-1.22h-3.52V5.24a.87.87 0 0 0-1.23-.7v-.01L17 6.32l-1.71-2.97a.87.87 0 0 0-1.41 0h-.01l-1.74 3.02-3-1.73H9.1a.87.87 0 0 0-1.22.71v3.49H4.41a.87.87 0 0 0-.7 1.22H3.7l1.71 2.97-3.07 1.78a.87.87 0 0 0 0 1.4v.01l3.05 1.76-1.75 3.04a.87.87 0 0 0 .7 1.22h3.52v3.51h.01a.87.87 0 0 0 1.22.7v.01l3.1-1.78 1.71 2.97h.01a.87.87 0 0 0 1.4 0h.01l1.75-3.02 3 1.73a.87.87 0 0 0 1.22-.71v-3.49h3.47a.87.87 0 0 0 .7-1.22h.01l-1.71-2.97 3.07-1.77v-.01a.87.87 0 0 0 .35-.7Zm-16.68 4.97c-.72.43-1.38.48-1.95.33l.08-.88c.43.12.98.12 1.5-.18.44-.25.54-.57.41-.8-.38-.65-2.28 1.06-3.1-.36-.36-.62-.12-1.46.77-1.97.6-.35 1.2-.45 1.77-.32l-.1.86c-.47-.11-.95 0-1.34.22-.34.2-.44.45-.31.68.34.59 2.27-1.06 3.09.34.4.7.2 1.5-.82 2.08Zm4.56-2.72-.6-.5-1.62.94.13.77-.91.53-.72-4.61 1-.58L16 17.22l-.91.52Zm1.23-.7-2.18-3.77.8-.47 1.78 3.06 1.59-.92.4.71-2.4 1.39Zm2.94-1.7-2.18-3.77 2.67-1.54.4.7-1.86 1.08.46.8 1.83-1.06.4.7-1.82 1.06.5.86 1.86-1.08.4.7-2.66 1.55Z"/>
</svg>
