<svg xmlns="http://www.w3.org/2000/svg" width="30" height="30" fill="none">
  <g fill="#E3412A" clip-path="url(#a)">
    <path d="M26.88 5h-3.34v2.5a1.83 1.83 0 1 1-3.66 0V5h-9.71v2.5a1.83 1.83 0 0 1-3.67 0V5H3.17a1.48 1.48 0 0 0-1.5 1.5v18.66a1.48 1.48 0 0 0 1.46 1.5h23.75a1.48 1.48 0 0 0 1.45-1.5V6.5A1.48 1.48 0 0 0 26.88 5ZM8.32 21.67H6.67V20h1.66v1.67Zm0-4.17H6.67v-1.67h1.66v1.67Zm0-4.17H6.67v-1.66h1.66v1.66Zm5 8.34h-1.66V20h1.66v1.67Zm0-4.17h-1.66v-1.67h1.66v1.67Zm0-4.17h-1.66v-1.66h1.66v1.66Zm5 8.34h-1.66V20h1.66v1.67Zm0-4.17h-1.66v-1.67h1.66v1.67Zm0-4.17h-1.66v-1.66h1.66v1.66Zm5 8.34h-1.66V20h1.66v1.67Zm0-4.17h-1.66v-1.67h1.66v1.67Zm0-4.17h-1.66v-1.66h1.66v1.66Z"/>
    <path d="M8.33 8.33a.83.83 0 0 0 .84-.83v-5a.83.83 0 0 0-1.67 0v5a.83.83 0 0 0 .83.83ZM21.67 8.33a.83.83 0 0 0 .83-.83v-5a.83.83 0 1 0-1.67 0v5a.83.83 0 0 0 .84.83Z"/>
  </g>
  <defs>
    <clipPath id="a">
      <path fill="#fff" d="M0 0h30v30H0z"/>
    </clipPath>
  </defs>
</svg>
