<?xml version="1.0" encoding="utf-8"?>
<svg xmlns="http://www.w3.org/2000/svg" xml:space="preserve" style="enable-background:new 0 0 560 400" version="1.0" viewBox="0 0 560 400">
  <path fill="#FFF" fill-rule="evenodd" d="M180 199c0-14.8 1.2-24.1 31.8-47 25.3-18.9 106.5-83.5 106.5-83.5v107.8H380v155.2H199.3a19.4 19.4 0 0 1-19.3-19.3V199z" clip-rule="evenodd"/>
  <path fill-rule="evenodd" d="M318.3 176.3v62.5L204.9 316l143.4-46.6v-93.1h-30zM266.5 173.1c6.6-7.9 16.3-10.7 21.6-6.2 5.3 4.5 4.3 14.5-2.4 22.4-6.6 7.9-16.3 10.7-21.6 6.2-5.3-4.5-4.3-14.5 2.4-22.4z" clip-rule="evenodd"/>
</svg>
