<svg xmlns="http://www.w3.org/2000/svg" width="20" height="20" fill="none">
  <g clip-path="url(#a)">
    <path stroke="#E3412A" stroke-linecap="round" stroke-linejoin="round" stroke-width="2" d="M8.8 5.2 5.97 1.95c-.33-.38-.93-.38-1.3 0L2.36 4.27c-.7.7-.89 1.72-.49 2.54a24.34 24.34 0 0 0 11.3 11.32c.82.4 1.85.2 2.54-.49l2.34-2.34c.38-.38.38-.98 0-1.3l-3.27-2.81c-.34-.3-.87-.26-1.21.09l-1.14 1.13a.39.39 0 0 1-.46.08A12.13 12.13 0 0 1 7.5 8.02a.39.39 0 0 1 .08-.47L8.7 6.42c.34-.35.38-.88.08-1.22v0Z"/>
  </g>
  <defs>
    <clipPath id="a">
      <path fill="#fff" d="M0 0h20v20H0z"/>
    </clipPath>
  </defs>
</svg>
