<svg xmlns="http://www.w3.org/2000/svg" width="20" height="20" fill="none">
  <path fill="#E3412A" d="M12.3 7.2H7.04c-1.04 0-1.87.83-1.87 1.86v2.6c0 1.02.83 1.84 1.87 1.84h5.26c1.03 0 1.87-.82 1.87-1.84v-2.6c0-1.03-.84-1.85-1.87-1.85Zm-1.27 3.28-2.46 1.16a.1.1 0 0 1-.13-.04.1.1 0 0 1 0-.05V9.16a.1.1 0 0 1 .13-.09l2.47 1.24a.1.1 0 0 1 .05.08.1.1 0 0 1-.06.1Z"/>
  <path fill="#E3412A" d="M4.27 3.13a1.8 1.8 0 0 0-1.8 1.8v10.8a1.8 1.8 0 0 0 1.8 1.8h10.8a1.8 1.8 0 0 0 1.8-1.8V4.93a1.8 1.8 0 0 0-1.8-1.8H4.27Zm0-1.8h10.8a3.6 3.6 0 0 1 3.6 3.6v10.8a3.6 3.6 0 0 1-3.6 3.6H4.27a3.6 3.6 0 0 1-3.6-3.6V4.93a3.6 3.6 0 0 1 3.6-3.6Z"/>
</svg>
