<svg xmlns="http://www.w3.org/2000/svg" width="30" height="30" fill="none">
  <path fill="#E3412A" d="M23.938 10a2.5 2.5 0 0 0-2.15-1.25H18.75v-2.5A1.25 1.25 0 0 0 17.5 5H5a2.5 2.5 0 0 0-2.5 2.5V20a2.5 2.5 0 0 0 1.25 2.163 4.378 4.378 0 1 0 8.75.337h3.875a4.35 4.35 0 0 0 8.625 0 2.5 2.5 0 0 0 2.5-2.5v-3.75a1.338 1.338 0 0 0-.175-.65L23.938 10Zm-5.188 1.25h3.038l2.25 3.75H18.75v-3.75ZM8.125 23.75a1.875 1.875 0 1 1 0-3.75 1.875 1.875 0 0 1 0 3.75Zm12.5 0a1.875 1.875 0 1 1 0-3.75 1.875 1.875 0 0 1 0 3.75Z"/>
</svg>
