<svg xmlns="http://www.w3.org/2000/svg" width="20" height="20" fill="none">
  <g clip-path="url(#a)">
    <path fill="#E3412A" fill-rule="evenodd" d="M6.22081.88825c.9775-.045 1.28917-.055 3.77917-.055 2.49002 0 2.80162.01083 3.77832.055.9767.04417 1.6433.2 2.2267.42584.6108.23083 1.165.59166 1.6233 1.05833.4667.4575.8267 1.01083 1.0567 1.6225.2266.58333.3816 1.25.4266 2.225.045.97916.055 1.29083.055 3.78 0 2.48998-.0108 2.80168-.055 3.77918-.0441.975-.2 1.6417-.4266 2.225-.23.6117-.5906 1.166-1.0567 1.6242-.4583.4666-1.0125.8266-1.6233 1.0566-.5834.2267-1.25.3817-2.225.4267-.9784.045-1.29.055-3.78002.055-2.49 0-2.80167-.0108-3.77917-.055-.975-.0442-1.64166-.2-2.225-.4267a4.4975 4.4975 0 0 1-1.62416-1.0566 4.49353 4.49353 0 0 1-1.0575-1.6234c-.22584-.5833-.38084-1.25-.42584-2.225-.045-.9791-.055-1.2908-.055-3.77998 0-2.49.01084-2.80167.055-3.77834.04417-.97666.2-1.64333.42584-2.22666a4.49657 4.49657 0 0 1 1.05833-1.62333 4.4932 4.4932 0 0 1 1.6225-1.0575c.58333-.22584 1.25-.38084 2.225-.42584h.00083Zm7.48329 1.65c-.9666-.04416-1.2566-.05333-3.70412-.05333-2.4475 0-2.7375.00917-3.70417.05333-.89416.04084-1.37916.19-1.7025.31583-.4275.16667-.73333.36417-1.05416.68501a2.84315 2.84315 0 0 0-.685 1.05416c-.12584.32333-.275.80833-.31584 1.7025-.04416.96667-.05333 1.25667-.05333 3.70417 0 2.44748.00917 2.73748.05333 3.70418.04084.8942.19 1.3792.31584 1.7025.14666.3975.38083.7583.685 1.0542.29583.3041.65666.5383 1.05416.685.32334.1258.80834.275 1.7025.3158.96667.0442 1.25584.0533 3.70417.0533 2.44832 0 2.73752-.0091 3.70412-.0533.8942-.0408 1.3792-.19 1.7025-.3158.4275-.1667.7334-.3642 1.0542-.685.3042-.2959.5383-.6567.685-1.0542.1258-.3233.275-.8083.3158-1.7025.0442-.9667.0534-1.2567.0534-3.70418 0-2.4475-.0092-2.7375-.0534-3.70417-.0408-.89417-.19-1.37917-.3158-1.7025-.1667-.4275-.3642-.73333-.685-1.05416a2.8443 2.8443 0 0 0-1.0542-.68501c-.3233-.12583-.8083-.27499-1.7025-.31583ZM8.82915 12.8258a3.05803 3.05803 0 0 0 2.05995.1039 3.05758 3.05758 0 0 0 2.1576-3.22886 3.05783 3.05783 0 0 0-.8842-1.86342 3.05853 3.05853 0 0 0-1.1322-.71655 3.05837 3.05837 0 0 0-4.05489 2.43068 3.05874 3.05874 0 0 0 .7585 2.50235 3.0598 3.0598 0 0 0 1.09524.7719ZM6.66831 6.66825A4.71169 4.71169 0 0 1 14.353 8.19683a4.71111 4.71111 0 0 1 0 3.60617 4.71008 4.71008 0 0 1-1.0214 1.5286 4.71159 4.71159 0 0 1-3.33162 1.38 4.71174 4.71174 0 0 1-3.33167-1.38 4.7117 4.7117 0 0 1 0-6.66335Zm9.08829-.67833a1.11265 1.11265 0 0 0 .2553-.36169c.06-.13642.0921-.2835.0943-.43254a1.11438 1.11438 0 0 0-.0817-.4351 1.11354 1.11354 0 0 0-.2446-.36897 1.1129 1.1129 0 0 0-.3689-.2446 1.11416 1.11416 0 0 0-.8677.01265 1.11463 1.11463 0 0 0-.3617.25525 1.11379 1.11379 0 0 0-.3035.78077c.0042.28984.1212.56663.3262.7716.2049.20497.4817.32199.7716.32621a1.11393 1.11393 0 0 0 .7807-.30358Z" clip-rule="evenodd"/>
  </g>
  <defs>
    <clipPath id="a">
      <path fill="#fff" d="M0 0h20v20H0z"/>
    </clipPath>
  </defs>
</svg>
