<svg xmlns="http://www.w3.org/2000/svg" x="2000" viewBox="0 0 64 64">
  <path fill="#fff" d="M31.8.5a32.2 32.2 0 0 1 16 4.2L45 7.3l-4.3-4.5L33 9.4l-4.4-4.8-14 12.4 9 9.7-3.5 3 8.8 9.7-3.5 3 12.5 13.8 7.5-6.8 6.4 7.3c-1.3 1-2.7 1.9-4.2 2.7A32.1 32.1 0 0 1 32 63.5C14.3 63.5 0 49.4 0 32A31.7 31.7 0 0 1 31.8.5zM26 30l7.6-6.7 6.8 7.5-7.6 6.8zm5.4 13 7.6-6.8 6.9 7.6-7.7 6.7zM20.6 17.2l7.6-6.7L35 18l-7.6 6.7zm14-3.6 5.6-5 5.1 5.6-5.6 5zm10 23.2 5.7-5 5.1 5.6-5.6 5zm5 11.4 5.7-5.1 5.1 5.6-5.7 5.1zm2.3-26 3.8-3.4 3.4 3.7-3.8 3.4zM47.1 11l3.7-3.4 3.5 3.8-3.8 3.3zm9.6 22.3 3.8-3.4 3.5 3.8-3.8 3.3zm-17-8.4 5.7-5 5.1 5.6-5.6 5z"/>
</svg>
