<svg xmlns="http://www.w3.org/2000/svg" width="219" height="66" fill="none">
  <path fill="#E84626" d="M5.9 30.2H0V36H6v-5.8Z"/>
  <path fill="#22B8CF" d="M43.3 30.6 13.6.8a2.8 2.8 0 0 0-4 0L1 9.4a2.8 2.8 0 0 0 0 4l18 18c.6.6.6 1.6 0 2.2L.8 51.8a2.8 2.8 0 0 0 0 4l8.6 8.6a2.8 2.8 0 0 0 4 0l20.8-20.9c.2 0 .4-.2.5-.3l8.6-8.6a2.8 2.8 0 0 0 0-4Z"/>
  <path fill="#fff" d="M65.6 24.6v7.2h21.8c4.4 0 5.2-2 5.2-3.6 0-1.7-.8-3.6-5.2-3.6H65.6Zm0 14.6v5.1h-8v-27h29.8c7.7 0 12.5 4.6 12.5 11 0 6.3-4.8 11-12.5 11H65.6ZM126 37.1l-6.8-8.9-6.8 9H126Zm8.7 11.2-3-4h-24.8l-3 4-6.2-4 21.5-28.2L141 44.3M192.5 27.5h22.4v6.7h-22.4v3h25.8v7.1h-33.8v-27h33.8v7h-25.8M168.9 24c-2-.7-4.3-1-6.7-1-9.4 0-13.7 4.9-13.7 8.1 0 3.3 4.3 8.2 13.7 8.2 3.9 0 7.3-1 9.7-2.4v-9.2h7.4v13c-5.3 4-10.3 5.9-17.1 5.9-10.4 0-21.6-5.7-21.6-15.5 0-9.7 11.2-15.4 21.6-15.4 3.2 0 6.1.4 8.9 1.3"/>
</svg>
