<svg xmlns="http://www.w3.org/2000/svg" width="223" height="66" fill="none">
  <path fill="#1D2646" d="M69.57 26.56v7.27l21.8-.02c4.4 0 5.2-1.95 5.2-3.64 0-1.65-.8-3.61-5.2-3.61h-21.8Zm0 14.68v5.07h-7.91V19.33l29.7.02c7.77.03 12.55 4.55 12.55 10.91 0 6.39-4.77 10.97-12.55 10.97H69.57ZM130.08 39.14l-6.86-8.93-6.83 8.93h13.69Zm8.62 11.2-3.1-4.02h-24.7l-3.07 4.02-6.16-4.04 21.53-28.16 21.67 28.2M196.46 29.47h22.43v6.69h-22.43v3.13h25.88v7.04h-33.8V19.29h33.76v7.05h-25.84M172.87 25.98c-2-.63-4.25-1-6.67-1-9.38 0-13.7 4.9-13.7 8.13 0 3.27 4.33 8.16 13.7 8.16a20 20 0 0 0 9.74-2.34v-9.27h7.34V42.7c-5.31 4.04-10.3 5.9-17.08 5.9-10.4 0-21.56-5.71-21.56-15.5 0-9.76 11.17-15.46 21.56-15.46 3.15 0 6.15.48 8.88 1.34"/>
  <path fill="#E84626" d="M5.88 30.21H.04v5.84h5.84V30.2Z"/>
  <path fill="#22B8CF" d="M43.33 30.6 13.55.82a2.84 2.84 0 0 0-4 0L.97 9.42a2.84 2.84 0 0 0 0 4l18 18c.6.6.6 1.62 0 2.22L.83 51.8a2.84 2.84 0 0 0 0 4l8.6 8.59a2.84 2.84 0 0 0 4 0l20.82-20.83c.18-.1.36-.25.5-.4l8.6-8.59a2.8 2.8 0 0 0 0-3.96Z"/>
</svg>
