<svg xmlns="http://www.w3.org/2000/svg" width="20" height="20" fill="none">
  <path fill="#E3412A" d="M4 1.33A3.35 3.35 0 0 0 .68 4.67V16A3.35 3.35 0 0 0 4 19.33h11.32A3.35 3.35 0 0 0 18.67 16V4.67a3.35 3.35 0 0 0-3.34-3.34H4Zm0 1.64h11.33a1.7 1.7 0 0 1 1.7 1.7V16a1.7 1.7 0 0 1-1.7 1.7H4A1.7 1.7 0 0 1 2.3 16V4.67A1.7 1.7 0 0 1 4 2.97Zm5.44 4.28c-.6 0-1.12 0-1.4.14-.2.1-.34.3-.25.31.1.02.36.07.5.26.17.23.16.76.16.76s.1 1.45-.23 1.63c-.23.12-.54-.13-1.2-1.28-.35-.6-.61-1.25-.61-1.25s-.05-.12-.14-.19c-.1-.08-.26-.1-.26-.1h-1.6s-.24.02-.32.12c-.08.1-.01.28-.01.28s1.25 2.93 2.67 4.41c1.3 1.36 2.78 1.27 2.78 1.27h.67s.2-.03.3-.13c.1-.1.1-.3.1-.3s-.02-.9.4-1.03c.41-.13.94.87 1.5 1.25.42.3.74.23.74.23l1.5-.02s.78-.05.4-.67c-.02-.05-.2-.45-1.1-1.28-.94-.87-.81-.73.32-2.24.68-.91.96-1.47.87-1.72-.08-.22-.59-.16-.59-.16h-1.68s-.13-.01-.22.04a.47.47 0 0 0-.14.19s-.27.7-.63 1.31c-.75 1.27-1.05 1.34-1.17 1.26-.29-.18-.22-.74-.22-1.13 0-1.24.2-1.75-.36-1.88a2.8 2.8 0 0 0-.78-.08Z"/>
</svg>
